<svg id="visual" viewBox="0 0 900 600" width="900" height="600" xmlns="http://www.w3.org/2000/svg" xmlns:xlink="http://www.w3.org/1999/xlink" version="1.1"><rect x="0" y="0" width="900" height="600" fill="#002233"></rect><path d="M0 579L18.8 577.2C37.7 575.3 75.3 571.7 112.8 569.3C150.3 567 187.7 566 225.2 565C262.7 564 300.3 563 337.8 561.5C375.3 560 412.7 558 450.2 559.3C487.7 560.7 525.3 565.3 562.8 568.5C600.3 571.7 637.7 573.3 675.2 574.8C712.7 576.3 750.3 577.7 787.8 575C825.3 572.3 862.7 565.7 881.3 562.3L900 559L900 601L881.3 601C862.7 601 825.3 601 787.8 601C750.3 601 712.7 601 675.2 601C637.7 601 600.3 601 562.8 601C525.3 601 487.7 601 450.2 601C412.7 601 375.3 601 337.8 601C300.3 601 262.7 601 225.2 601C187.7 601 150.3 601 112.8 601C75.3 601 37.7 601 18.8 601L0 601Z" fill="#98b6f6" stroke-linecap="round" stroke-linejoin="miter"></path></svg>