<svg id="visual" viewBox="0 0 900 600" width="900" height="600" xmlns="http://www.w3.org/2000/svg" xmlns:xlink="http://www.w3.org/1999/xlink" version="1.1"><rect x="0" y="0" width="900" height="600" fill="#002233"></rect><path d="M0 566L21.5 567.2C43 568.3 86 570.7 128.8 571.8C171.7 573 214.3 573 257.2 571.7C300 570.3 343 567.7 385.8 566.3C428.7 565 471.3 565 514.2 566.2C557 567.3 600 569.7 642.8 571C685.7 572.3 728.3 572.7 771.2 573.2C814 573.7 857 574.3 878.5 574.7L900 575L900 601L878.5 601C857 601 814 601 771.2 601C728.3 601 685.7 601 642.8 601C600 601 557 601 514.2 601C471.3 601 428.7 601 385.8 601C343 601 300 601 257.2 601C214.3 601 171.7 601 128.8 601C86 601 43 601 21.5 601L0 601Z" fill="#98b6f6" stroke-linecap="round" stroke-linejoin="miter"></path></svg>